<svg id="svg" version="1.1" xmlns="http://www.w3.org/2000/svg" xmlns:xlink="http://www.w3.org/1999/xlink" width="400" height="383.23353293413174" viewBox="0, 0, 400,383.23353293413174"><g id="svgg"><path id="path0" d="M193.672 67.894 C 193.145 68.079,190.988 68.403,188.878 68.614 C 184.081 69.095,180.560 69.692,178.332 70.403 C 177.383 70.705,176.137 70.952,175.564 70.951 C 174.991 70.950,173.956 71.188,173.263 71.480 C 172.101 71.970,171.260 72.214,167.033 73.288 C 166.198 73.500,165.335 73.822,165.116 74.003 C 164.897 74.184,164.068 74.453,163.275 74.602 C 162.481 74.750,161.738 75.024,161.622 75.211 C 161.507 75.398,161.154 75.551,160.838 75.551 C 160.322 75.551,158.950 76.093,155.513 77.655 C 153.693 78.481,144.069 83.211,143.432 83.591 C 143.116 83.780,141.735 84.587,140.364 85.385 C 138.993 86.183,137.699 86.977,137.488 87.150 C 136.366 88.072,132.026 90.933,131.448 91.133 C 131.079 91.260,130.777 91.494,130.777 91.651 C 130.777 91.809,130.043 92.436,129.147 93.045 C 128.250 93.653,127.307 94.324,127.051 94.535 C 126.794 94.746,126.363 95.091,126.092 95.302 C 121.761 98.672,111.708 108.712,107.192 114.177 C 106.981 114.433,106.592 114.900,106.328 115.215 C 106.064 115.530,105.848 115.924,105.847 116.091 C 105.846 116.258,105.242 117.052,104.504 117.855 C 103.767 118.657,103.164 119.409,103.164 119.525 C 103.164 119.641,102.646 120.390,102.013 121.189 C 101.381 121.988,100.863 122.753,100.863 122.890 C 100.863 123.117,99.390 125.347,98.945 125.791 C 98.681 126.055,97.874 127.359,97.401 128.284 C 97.186 128.706,96.598 129.741,96.094 130.585 C 95.163 132.145,90.561 141.370,89.493 143.816 C 89.171 144.554,88.664 145.647,88.366 146.244 C 88.067 146.841,87.823 147.531,87.821 147.778 C 87.820 148.025,87.577 148.689,87.282 149.255 C 86.987 149.821,86.621 150.851,86.469 151.544 C 86.317 152.236,86.054 153.068,85.884 153.391 C 85.715 153.714,85.207 155.273,84.755 156.855 C 84.303 158.437,83.754 160.249,83.535 160.882 C 83.316 161.515,83.001 162.917,82.836 163.997 C 82.670 165.077,82.343 166.317,82.111 166.752 C 81.878 167.187,81.687 168.239,81.687 169.089 C 81.687 169.939,81.447 171.374,81.154 172.278 C 80.861 173.182,80.518 175.475,80.393 177.373 C 80.268 179.271,79.990 181.427,79.776 182.164 C 79.160 184.282,79.296 202.101,79.956 205.753 C 80.261 207.440,80.518 209.684,80.528 210.738 C 80.537 211.793,80.802 213.503,81.116 214.538 C 81.430 215.574,81.687 216.939,81.687 217.573 C 81.687 218.206,81.931 219.603,82.229 220.676 C 82.980 223.378,83.582 225.778,84.008 227.764 C 84.207 228.690,84.523 229.639,84.711 229.873 C 84.899 230.106,85.173 231.030,85.321 231.925 C 85.468 232.820,85.747 233.650,85.939 233.769 C 86.132 233.888,86.291 234.278,86.292 234.634 C 86.293 234.991,86.552 235.777,86.867 236.381 C 87.182 236.985,87.446 237.676,87.453 237.915 C 87.460 238.155,87.800 239.041,88.207 239.885 C 88.615 240.729,88.954 241.621,88.961 241.867 C 88.973 242.269,89.695 243.869,90.575 245.446 C 90.752 245.762,91.002 246.280,91.131 246.596 C 92.056 248.861,96.259 256.935,96.836 257.555 C 97.047 257.781,97.565 258.644,97.987 259.472 C 98.408 260.300,98.840 261.064,98.945 261.170 C 99.344 261.568,100.863 263.832,100.863 264.027 C 100.863 264.139,102.718 266.678,104.986 269.669 C 112.062 279.003,124.217 290.750,132.699 296.453 C 133.170 296.769,133.757 297.200,134.004 297.411 C 134.250 297.622,134.790 298.005,135.203 298.262 C 136.523 299.082,140.025 301.222,141.269 301.969 C 144.871 304.130,150.091 306.824,153.595 308.331 C 156.111 309.412,157.962 310.256,159.215 310.892 C 159.775 311.177,160.562 311.409,160.964 311.409 C 161.366 311.409,162.029 311.663,162.439 311.972 C 162.848 312.282,163.625 312.541,164.164 312.548 C 164.704 312.554,165.481 312.813,165.890 313.123 C 166.300 313.433,167.032 313.692,167.517 313.698 C 168.002 313.705,168.865 313.945,169.434 314.232 C 170.004 314.519,171.238 314.872,172.177 315.016 C 173.115 315.160,174.064 315.420,174.286 315.594 C 174.507 315.767,175.609 316.027,176.735 316.170 C 177.861 316.313,179.069 316.589,179.420 316.784 C 180.207 317.220,183.431 317.683,195.909 319.148 C 200.599 319.699,209.801 319.700,214.382 319.151 C 216.385 318.910,219.492 318.548,221.285 318.345 C 226.875 317.713,234.968 316.153,237.129 315.291 C 237.723 315.055,238.610 314.861,239.099 314.861 C 239.589 314.861,240.483 314.603,241.088 314.288 C 241.692 313.973,242.617 313.709,243.145 313.701 C 243.672 313.693,244.439 313.433,244.848 313.123 C 245.257 312.813,245.958 312.560,246.405 312.560 C 246.851 312.560,247.552 312.307,247.961 311.997 C 248.371 311.687,249.061 311.428,249.495 311.422 C 249.930 311.415,250.620 311.156,251.029 310.846 C 251.439 310.537,252.070 310.278,252.433 310.271 C 253.070 310.259,253.856 309.910,258.587 307.534 C 259.803 306.923,261.054 306.424,261.367 306.424 C 261.680 306.424,261.937 306.287,261.937 306.120 C 261.937 305.953,262.929 305.336,264.142 304.749 C 265.355 304.162,267.383 303.094,268.648 302.376 C 269.914 301.658,271.337 300.867,271.812 300.618 C 272.287 300.368,272.675 300.020,272.675 299.843 C 272.675 299.665,272.839 299.521,273.039 299.521 C 273.495 299.521,276.576 297.483,278.659 295.804 C 279.524 295.106,280.416 294.535,280.640 294.535 C 280.865 294.535,281.106 294.399,281.176 294.232 C 281.246 294.066,282.598 292.901,284.180 291.643 C 290.526 286.600,298.816 278.317,303.357 272.483 C 304.506 271.007,305.666 269.661,305.935 269.492 C 306.204 269.323,306.424 269.008,306.424 268.792 C 306.424 268.575,307.200 267.389,308.150 266.155 C 309.099 264.922,309.875 263.806,309.875 263.676 C 309.875 263.343,311.541 261.005,311.889 260.850 C 312.047 260.780,312.176 260.490,312.176 260.206 C 312.176 259.923,312.406 259.461,312.686 259.181 C 312.967 258.900,313.441 258.205,313.741 257.636 C 314.041 257.067,315.000 255.256,315.872 253.612 C 318.809 248.080,320.997 243.470,320.997 242.815 C 320.997 242.575,321.170 242.378,321.381 242.378 C 321.592 242.378,321.770 242.076,321.777 241.707 C 321.784 241.337,322.124 240.345,322.531 239.501 C 322.939 238.658,323.278 237.676,323.285 237.319 C 323.292 236.962,323.451 236.576,323.638 236.460 C 323.825 236.345,324.091 235.651,324.228 234.920 C 324.365 234.188,324.729 233.108,325.036 232.519 C 325.343 231.930,325.596 231.079,325.597 230.629 C 325.598 230.178,325.857 229.315,326.172 228.711 C 326.487 228.107,326.746 227.219,326.747 226.737 C 326.749 226.256,327.009 225.243,327.325 224.485 C 327.641 223.728,327.900 222.615,327.900 222.013 C 327.900 221.410,328.145 220.266,328.443 219.471 C 328.742 218.676,329.074 217.038,329.181 215.831 C 329.289 214.624,329.552 213.071,329.767 212.379 C 331.606 206.454,331.492 181.182,329.593 173.704 C 329.295 172.531,329.051 170.955,329.051 170.204 C 329.051 169.452,328.792 168.218,328.476 167.461 C 328.159 166.704,327.894 165.431,327.887 164.634 C 327.879 163.836,327.626 162.752,327.325 162.224 C 327.024 161.697,326.765 160.748,326.750 160.115 C 326.735 159.482,326.476 158.533,326.174 158.006 C 325.873 157.478,325.620 156.605,325.613 156.066 C 325.605 155.526,325.346 154.749,325.036 154.340 C 324.726 153.930,324.467 153.250,324.459 152.828 C 324.451 152.407,324.186 151.567,323.871 150.963 C 323.556 150.359,323.292 149.668,323.285 149.429 C 323.278 149.189,322.939 148.303,322.531 147.459 C 322.124 146.616,321.784 145.723,321.777 145.477 C 321.770 145.230,321.518 144.540,321.216 143.943 C 320.534 142.590,318.444 138.071,318.143 137.296 C 318.020 136.980,317.522 136.031,317.036 135.187 C 316.551 134.343,315.493 132.445,314.686 130.968 C 313.879 129.492,312.984 128.011,312.697 127.678 C 312.411 127.345,312.176 126.968,312.176 126.840 C 312.176 126.711,311.368 125.431,310.380 123.994 C 309.392 122.556,308.068 120.604,307.437 119.655 C 306.806 118.706,305.973 117.619,305.587 117.241 C 305.201 116.862,304.585 116.086,304.219 115.515 C 303.262 114.023,303.045 113.758,300.299 110.711 C 296.132 106.087,287.527 97.701,284.879 95.683 C 284.600 95.470,283.250 94.423,281.879 93.355 C 280.508 92.287,278.739 91.023,277.948 90.546 C 277.157 90.069,276.510 89.520,276.510 89.326 C 276.510 89.133,276.355 88.974,276.166 88.974 C 275.978 88.974,274.209 87.960,272.236 86.720 C 267.952 84.028,265.410 82.602,261.553 80.729 C 259.971 79.961,258.418 79.171,258.102 78.974 C 257.785 78.776,257.267 78.520,256.951 78.406 C 256.635 78.291,255.887 77.947,255.290 77.641 C 254.693 77.335,254.003 77.079,253.756 77.072 C 253.510 77.065,252.617 76.726,251.774 76.318 C 250.930 75.911,249.972 75.571,249.645 75.564 C 249.318 75.557,248.887 75.403,248.686 75.223 C 248.486 75.042,247.028 74.505,245.446 74.030 C 243.864 73.555,242.259 73.006,241.879 72.810 C 241.500 72.613,240.464 72.296,239.578 72.105 C 237.112 71.573,234.698 70.953,232.739 70.347 C 231.761 70.046,230.343 69.799,229.588 69.799 C 228.833 69.799,227.475 69.558,226.571 69.264 C 225.668 68.970,223.359 68.621,221.442 68.488 C 219.525 68.355,217.369 68.078,216.651 67.872 C 215.042 67.411,194.997 67.430,193.672 67.894 M262.451 139.191 C 263.851 139.723,263.831 139.072,263.483 172.963 C 263.179 202.644,262.936 208.630,261.955 210.738 C 261.759 211.160,261.428 212.282,261.221 213.231 C 260.541 216.342,258.899 220.135,255.990 225.312 C 255.279 226.577,254.450 228.130,254.149 228.763 C 253.847 229.396,252.928 230.690,252.105 231.640 C 251.283 232.589,249.987 234.142,249.225 235.091 C 247.236 237.570,245.526 239.295,243.337 241.032 C 242.282 241.869,241.011 242.942,240.511 243.417 C 239.268 244.599,236.061 246.670,233.749 247.782 C 232.694 248.290,231.745 248.802,231.640 248.920 C 231.218 249.392,225.784 251.966,225.185 251.978 C 224.833 251.984,224.210 252.243,223.800 252.553 C 223.391 252.863,222.577 253.116,221.991 253.116 C 221.406 253.116,220.361 253.357,219.668 253.652 C 214.438 255.875,197.045 255.876,191.837 253.654 C 191.145 253.358,190.190 253.116,189.715 253.116 C 188.896 253.116,185.162 251.932,183.773 251.232 C 183.417 251.053,182.263 250.529,181.208 250.067 C 178.504 248.884,177.418 248.279,173.829 245.957 C 169.759 243.323,170.643 242.961,163.375 250.240 C 159.899 253.720,156.787 256.568,156.459 256.568 C 155.773 256.568,146.117 246.956,146.117 246.274 C 146.117 246.025,148.965 242.959,152.445 239.461 C 159.375 232.496,159.271 232.681,157.622 230.238 C 156.989 229.300,156.472 228.369,156.472 228.169 C 156.472 227.968,156.324 227.804,156.143 227.804 C 155.522 227.804,151.177 218.491,150.239 215.149 C 149.051 210.919,148.731 209.540,148.369 207.095 C 148.166 205.724,147.817 203.480,147.595 202.109 C 146.939 198.071,147.828 185.476,148.883 183.856 C 149.034 183.625,149.277 182.686,149.424 181.769 C 149.570 180.853,149.920 179.661,150.202 179.121 C 150.484 178.582,150.715 177.938,150.717 177.692 C 150.719 177.301,151.226 176.157,152.302 174.113 C 152.468 173.797,153.048 172.675,153.590 171.620 C 156.274 166.397,157.931 163.863,161.113 160.115 C 165.115 155.403,171.424 149.977,175.346 147.874 C 176.250 147.390,178.025 146.424,179.291 145.728 C 183.208 143.574,183.493 143.438,184.084 143.423 C 184.401 143.415,184.995 143.155,185.404 142.845 C 185.814 142.535,186.441 142.282,186.798 142.282 C 187.156 142.282,187.943 142.024,188.547 141.709 C 189.151 141.394,190.128 141.135,190.719 141.134 C 191.309 141.132,192.259 140.896,192.828 140.609 C 193.398 140.321,195.244 139.957,196.932 139.799 C 198.619 139.641,201.122 139.386,202.493 139.232 C 206.280 138.805,261.339 138.768,262.451 139.191 M196.740 155.594 C 195.369 155.908,193.789 156.407,193.229 156.702 C 192.670 156.997,191.871 157.239,191.455 157.239 C 186.849 157.239,175.565 165.810,170.260 173.338 C 168.693 175.561,165.929 180.907,165.497 182.550 C 165.358 183.078,165.097 183.854,164.918 184.276 C 164.527 185.193,163.849 187.781,163.317 190.389 C 162.806 192.891,163.042 205.269,163.614 205.982 C 163.851 206.278,164.164 207.340,164.309 208.343 C 164.454 209.346,164.820 210.641,165.122 211.220 C 165.424 211.799,165.678 212.531,165.686 212.848 C 165.694 213.164,165.954 213.758,166.263 214.167 C 166.573 214.577,166.826 215.125,166.826 215.386 C 166.826 215.977,169.397 220.329,170.081 220.896 C 170.468 221.218,171.421 220.477,174.241 217.656 C 178.791 213.107,178.367 213.061,183.994 218.702 C 189.663 224.384,189.616 224.019,185.235 228.380 C 183.337 230.269,181.783 232.029,181.783 232.290 C 181.783 232.832,186.171 235.858,186.957 235.858 C 187.241 235.858,187.962 236.096,188.560 236.386 C 191.114 237.630,192.421 238.115,193.864 238.355 C 194.708 238.496,195.570 238.753,195.781 238.927 C 197.160 240.061,212.836 239.818,215.653 238.619 C 216.247 238.366,217.047 238.159,217.431 238.159 C 217.815 238.159,218.623 237.901,219.227 237.586 C 219.832 237.271,220.680 237.012,221.112 237.011 C 221.545 237.010,222.062 236.858,222.263 236.674 C 222.463 236.490,224.008 235.612,225.695 234.724 C 232.482 231.152,239.598 224.184,242.358 218.408 C 242.862 217.354,243.375 216.405,243.497 216.299 C 243.977 215.886,245.073 213.355,245.316 212.097 C 245.458 211.368,245.802 210.333,246.082 209.796 C 246.363 209.260,246.593 208.381,246.594 207.843 C 246.595 207.305,246.812 206.649,247.076 206.386 C 247.447 206.014,247.580 200.180,247.664 180.422 L 247.773 154.938 223.503 154.981 C 203.502 155.016,198.795 155.124,196.740 155.594 " stroke="none" fill="#348c04" fill-rule="evenodd"></path><path id="path1" d="M0.000 191.755 L 0.000 383.509 200.000 383.509 L 400.000 383.509 400.000 191.755 L 400.000 0.000 200.000 0.000 L 0.000 0.000 0.000 191.755 M221.860 67.424 C 222.493 67.657,224.305 68.015,225.887 68.221 C 229.499 68.690,232.872 69.417,240.460 71.362 C 241.409 71.606,242.753 72.044,243.445 72.336 C 244.138 72.628,244.952 72.867,245.254 72.867 C 245.556 72.867,246.370 73.108,247.063 73.403 C 247.755 73.698,249.099 74.232,250.048 74.589 C 251.664 75.197,252.382 75.491,255.519 76.826 C 256.955 77.437,267.809 82.840,268.769 83.421 C 269.124 83.636,270.145 84.283,271.037 84.859 C 271.930 85.435,272.756 85.906,272.875 85.906 C 273.192 85.906,275.530 87.585,275.679 87.919 C 275.749 88.078,275.979 88.207,276.190 88.207 C 276.400 88.207,277.310 88.811,278.211 89.549 C 279.112 90.288,280.004 90.892,280.193 90.893 C 280.382 90.894,281.055 91.371,281.687 91.952 C 282.320 92.534,284.046 93.943,285.523 95.085 C 289.246 97.965,296.795 105.313,301.702 110.834 C 304.908 114.442,312.943 125.633,312.943 126.490 C 312.943 126.738,313.076 126.942,313.238 126.942 C 313.401 126.942,314.133 128.020,314.866 129.338 C 315.599 130.657,316.409 132.081,316.666 132.502 C 316.922 132.924,317.237 133.528,317.366 133.845 C 317.495 134.161,317.753 134.679,317.938 134.995 C 318.499 135.952,319.732 138.525,320.604 140.556 C 321.678 143.059,322.525 144.916,323.165 146.176 C 323.449 146.736,323.687 147.513,323.694 147.902 C 323.701 148.291,323.959 148.945,324.269 149.354 C 324.579 149.764,324.838 150.454,324.844 150.888 C 324.851 151.323,325.110 152.013,325.420 152.422 C 325.729 152.832,325.989 153.608,325.996 154.148 C 326.004 154.688,326.257 155.561,326.558 156.088 C 326.859 156.616,327.112 157.429,327.120 157.897 C 327.127 158.364,327.374 159.313,327.669 160.006 C 327.963 160.699,328.400 162.215,328.640 163.375 C 329.959 169.753,330.297 171.581,330.803 175.072 C 331.889 182.572,332.071 185.142,332.088 193.289 C 332.105 201.274,331.931 203.758,330.787 211.889 C 329.905 218.157,327.956 226.919,326.564 230.872 C 326.304 231.611,325.879 232.819,325.620 233.557 C 325.361 234.295,325.004 235.481,324.828 236.193 C 324.652 236.904,324.322 237.672,324.095 237.899 C 323.868 238.127,323.682 238.640,323.682 239.040 C 323.682 239.439,323.449 240.225,323.165 240.785 C 322.880 241.344,322.377 242.407,322.046 243.145 C 320.339 246.953,318.601 250.688,318.300 251.198 C 318.114 251.515,317.537 252.637,317.018 253.691 C 316.499 254.746,315.629 256.264,315.084 257.064 C 314.540 257.864,314.094 258.605,314.094 258.709 C 314.094 258.814,313.769 259.367,313.372 259.939 C 312.975 260.510,311.814 262.272,310.792 263.854 C 308.993 266.641,305.049 272.049,304.042 273.112 C 303.770 273.399,302.569 274.842,301.373 276.318 C 298.109 280.349,286.588 291.467,285.675 291.467 C 285.486 291.467,285.331 291.606,285.331 291.777 C 285.331 292.151,278.175 297.603,277.685 297.603 C 277.496 297.603,277.283 297.736,277.213 297.898 C 276.549 299.433,260.128 308.355,252.733 311.200 C 251.783 311.565,250.489 312.080,249.856 312.344 C 248.071 313.089,246.165 313.743,244.487 314.185 C 243.643 314.408,242.780 314.718,242.570 314.874 C 242.359 315.030,241.409 315.283,240.460 315.436 C 239.511 315.589,238.544 315.868,238.312 316.054 C 238.080 316.241,237.045 316.504,236.011 316.639 C 234.978 316.774,233.929 317.044,233.679 317.240 C 233.430 317.436,232.222 317.694,230.995 317.815 C 229.767 317.935,228.465 318.187,228.100 318.374 C 227.736 318.561,225.837 318.884,223.882 319.092 C 221.926 319.301,219.463 319.631,218.408 319.828 C 215.905 320.293,194.429 320.291,191.946 319.824 C 190.892 319.626,188.993 319.368,187.728 319.251 C 185.621 319.055,183.951 318.746,178.523 317.542 C 177.469 317.309,175.657 316.936,174.497 316.714 C 173.337 316.492,172.223 316.156,172.023 315.969 C 171.823 315.781,171.377 315.628,171.033 315.628 C 170.248 315.628,165.505 314.203,163.892 313.483 C 163.228 313.186,162.441 312.943,162.144 312.943 C 161.847 312.943,161.269 312.690,160.859 312.380 C 160.450 312.071,159.813 311.812,159.445 311.805 C 158.491 311.788,145.352 305.586,142.105 303.620 C 141.423 303.207,139.502 302.030,137.488 300.790 C 137.066 300.530,136.333 300.111,135.858 299.858 C 135.384 299.605,134.995 299.253,134.995 299.076 C 134.995 298.898,134.812 298.754,134.589 298.754 C 134.256 298.754,132.554 297.602,130.201 295.784 C 129.990 295.621,129.351 295.188,128.780 294.822 C 128.210 294.456,127.433 293.847,127.055 293.469 C 126.676 293.091,125.381 292.039,124.178 291.132 C 121.276 288.944,110.138 277.815,107.870 274.838 C 106.883 273.543,105.976 272.397,105.853 272.291 C 105.110 271.652,102.780 268.496,102.780 268.129 C 102.780 267.887,102.637 267.689,102.461 267.689 C 102.197 267.689,98.449 262.300,97.795 260.981 C 97.689 260.769,97.159 259.904,96.616 259.060 C 96.074 258.217,95.511 257.267,95.367 256.951 C 95.222 256.635,94.747 255.785,94.310 255.062 C 92.574 252.187,88.207 243.128,88.207 242.400 C 88.207 242.211,87.964 241.568,87.667 240.971 C 86.617 238.859,85.443 235.785,84.763 233.365 C 84.585 232.733,84.266 231.697,84.055 231.064 C 83.701 230.004,83.297 228.576,82.047 223.969 C 81.101 220.481,79.724 212.664,79.007 206.711 C 78.554 202.952,78.566 183.998,79.024 180.058 C 79.745 173.851,80.986 166.700,81.787 164.142 C 82.018 163.404,82.330 162.109,82.481 161.266 C 82.632 160.422,82.931 159.214,83.144 158.581 C 83.358 157.948,83.737 156.826,83.986 156.088 C 84.235 155.350,84.585 154.228,84.763 153.595 C 85.281 151.755,86.263 149.050,86.676 148.327 C 86.885 147.961,87.057 147.469,87.057 147.235 C 87.057 147.000,87.303 146.264,87.604 145.600 C 87.905 144.935,88.525 143.528,88.981 142.474 C 90.050 140.001,93.436 133.223,94.346 131.735 C 94.733 131.103,95.523 129.679,96.101 128.571 C 96.680 127.464,97.298 126.558,97.474 126.558 C 97.650 126.558,97.795 126.400,97.795 126.208 C 97.795 125.770,100.227 121.974,101.032 121.157 C 101.361 120.823,101.630 120.428,101.630 120.280 C 101.630 119.874,106.378 113.659,108.847 110.835 C 114.433 104.446,122.327 97.002,128.173 92.613 C 130.554 90.825,132.675 89.226,132.886 89.060 C 133.097 88.894,133.960 88.341,134.803 87.832 C 135.647 87.322,136.424 86.799,136.529 86.670 C 136.879 86.241,141.416 83.605,141.806 83.605 C 142.016 83.605,142.372 83.384,142.596 83.113 C 142.971 82.662,150.627 78.712,153.787 77.340 C 154.525 77.020,155.940 76.400,156.930 75.963 C 157.920 75.525,158.965 75.168,159.250 75.168 C 159.536 75.168,159.956 74.982,160.183 74.754 C 160.411 74.527,161.179 74.197,161.890 74.021 C 162.601 73.845,163.787 73.489,164.525 73.230 C 165.264 72.970,166.472 72.546,167.210 72.288 C 171.619 70.744,179.019 69.012,185.427 68.024 C 187.536 67.698,190.125 67.290,191.179 67.116 C 194.036 66.645,220.464 66.911,221.860 67.424 M196.740 140.755 C 196.002 140.921,194.276 141.268,192.905 141.526 C 191.534 141.784,190.240 142.126,190.029 142.286 C 189.818 142.446,189.073 142.699,188.373 142.849 C 187.673 142.999,186.638 143.363,186.072 143.658 C 185.506 143.953,184.883 144.196,184.688 144.197 C 184.355 144.199,179.587 146.516,178.332 147.286 C 178.015 147.480,176.635 148.278,175.264 149.059 C 173.893 149.841,172.545 150.704,172.270 150.977 C 171.994 151.251,170.700 152.294,169.394 153.296 C 166.304 155.665,164.068 157.913,161.272 161.457 C 160.025 163.039,158.900 164.420,158.772 164.525 C 158.357 164.869,157.177 166.925,153.506 173.701 C 152.273 175.976,150.798 180.179,149.591 184.851 C 148.424 189.369,148.185 205.568,149.256 207.600 C 149.458 207.983,149.773 209.105,149.956 210.093 C 150.701 214.114,151.497 216.505,153.654 221.204 C 154.360 222.741,154.938 224.096,154.938 224.216 C 154.938 224.336,155.455 225.200,156.088 226.138 C 156.721 227.076,157.239 227.992,157.239 228.175 C 157.239 228.358,157.368 228.565,157.526 228.635 C 158.055 228.870,159.503 231.167,159.754 232.169 C 159.977 233.056,159.339 233.826,153.635 239.559 C 150.133 243.079,147.267 246.111,147.267 246.297 C 147.267 246.483,149.350 248.693,151.895 251.208 L 156.522 255.780 162.913 249.434 C 170.073 242.325,170.315 242.198,172.890 244.238 C 173.729 244.902,174.527 245.446,174.663 245.446 C 175.005 245.446,177.343 247.105,177.501 247.459 C 177.571 247.617,177.890 247.747,178.209 247.747 C 178.528 247.747,179.247 247.999,179.807 248.306 C 180.366 248.614,181.687 249.224,182.742 249.662 C 183.797 250.100,184.956 250.623,185.318 250.824 C 185.968 251.184,187.259 251.550,191.371 252.538 C 192.531 252.817,193.998 253.220,194.631 253.433 C 195.896 253.860,201.929 254.376,206.136 254.417 C 215.370 254.508,224.267 252.195,232.023 247.685 C 232.761 247.256,234.056 246.537,234.899 246.087 C 236.223 245.381,238.747 243.547,242.376 240.653 C 247.597 236.488,252.802 229.757,256.462 222.435 C 257.041 221.275,257.624 220.240,257.757 220.134 C 257.890 220.029,258.120 219.511,258.268 218.984 C 258.416 218.456,258.764 217.507,259.040 216.874 C 259.908 214.883,260.471 213.097,260.793 211.314 C 260.964 210.364,261.331 209.070,261.609 208.437 C 262.012 207.521,262.141 200.464,262.240 173.826 L 262.366 140.364 230.224 140.408 C 212.546 140.433,197.478 140.589,196.740 140.755 M248.678 154.390 C 249.557 155.269,249.581 195.604,248.706 200.575 C 248.390 202.368,248.125 204.612,248.117 205.561 C 248.110 206.510,247.857 207.718,247.555 208.245 C 247.254 208.773,247.000 209.549,246.991 209.971 C 246.982 210.393,246.717 211.233,246.402 211.837 C 246.087 212.441,245.829 213.169,245.829 213.455 C 245.829 213.968,244.348 217.079,243.927 217.450 C 243.808 217.555,243.251 218.591,242.690 219.751 C 242.129 220.911,241.355 222.205,240.969 222.627 C 240.584 223.049,239.493 224.343,238.544 225.503 C 236.363 228.172,236.024 228.524,234.352 229.849 C 233.598 230.446,232.267 231.543,231.392 232.286 C 229.608 233.804,229.497 233.869,224.836 236.185 C 222.988 237.103,221.196 237.997,220.853 238.172 C 220.509 238.347,219.560 238.611,218.743 238.758 C 217.926 238.906,217.044 239.196,216.782 239.404 C 216.520 239.611,215.140 239.927,213.714 240.106 C 212.288 240.284,209.827 240.607,208.245 240.824 C 204.557 241.328,194.542 240.277,193.500 239.276 C 193.299 239.084,192.815 238.926,192.424 238.926 C 192.033 238.926,190.902 238.572,189.912 238.138 C 179.333 233.509,179.135 233.156,184.276 228.065 C 186.280 226.080,187.919 224.320,187.919 224.153 C 187.919 223.767,179.046 214.765,178.665 214.765 C 178.510 214.765,176.751 216.405,174.757 218.408 C 170.567 222.619,169.996 222.802,168.487 220.422 C 166.948 217.996,164.911 213.926,164.897 213.249 C 164.890 212.923,164.631 212.321,164.321 211.911 C 164.012 211.502,163.758 210.757,163.758 210.256 C 163.758 209.755,163.567 208.987,163.332 208.549 C 163.098 208.111,162.752 206.569,162.565 205.123 C 162.378 203.676,162.072 201.319,161.886 199.884 C 161.684 198.324,161.692 196.434,161.906 195.186 C 162.102 194.037,162.405 191.802,162.578 190.221 C 162.751 188.639,163.088 186.783,163.326 186.098 C 164.251 183.433,164.605 182.310,164.915 181.056 C 165.092 180.340,165.379 179.649,165.552 179.522 C 165.726 179.395,166.465 178.098,167.195 176.641 C 168.594 173.847,171.337 169.895,171.876 169.895 C 172.052 169.895,172.196 169.709,172.196 169.483 C 172.196 168.778,177.960 163.355,180.981 161.217 C 181.317 160.979,182.972 160.063,184.660 159.181 C 186.347 158.299,187.892 157.415,188.092 157.217 C 188.292 157.018,188.810 156.854,189.243 156.853 C 189.675 156.852,190.476 156.617,191.023 156.332 C 191.570 156.046,192.692 155.687,193.516 155.533 C 194.340 155.379,195.210 155.091,195.449 154.894 C 196.849 153.737,247.546 153.257,248.678 154.390 " stroke="none" fill="#fbfbfb" fill-rule="evenodd"></path><path id="path2" d="M191.179 67.116 C 190.125 67.290,187.536 67.692,185.427 68.010 C 181.290 68.633,178.428 69.312,179.665 69.376 C 180.082 69.397,181.722 69.162,183.309 68.852 C 195.927 66.390,213.826 66.400,227.421 68.877 C 231.189 69.564,237.147 70.885,238.543 71.344 C 239.070 71.517,240.796 72.032,242.378 72.488 C 276.523 82.324,307.423 110.115,321.428 143.586 C 323.333 148.138,323.576 148.755,325.153 153.020 C 325.722 154.558,325.940 154.864,325.958 154.148 C 325.972 153.608,325.729 152.832,325.420 152.422 C 325.110 152.013,324.851 151.323,324.844 150.888 C 324.838 150.454,324.579 149.764,324.269 149.354 C 323.959 148.945,323.701 148.291,323.694 147.902 C 323.687 147.513,323.449 146.736,323.165 146.176 C 322.525 144.916,321.678 143.059,320.604 140.556 C 319.732 138.525,318.499 135.952,317.938 134.995 C 317.753 134.679,317.495 134.161,317.366 133.845 C 317.237 133.528,316.922 132.924,316.666 132.502 C 316.409 132.081,315.599 130.657,314.866 129.338 C 314.133 128.020,313.401 126.942,313.238 126.942 C 313.076 126.942,312.943 126.738,312.943 126.490 C 312.943 125.633,304.908 114.442,301.702 110.834 C 296.795 105.313,289.246 97.965,285.523 95.085 C 284.046 93.943,282.320 92.534,281.687 91.952 C 281.055 91.371,280.382 90.894,280.193 90.893 C 280.004 90.892,279.112 90.288,278.211 89.549 C 277.310 88.811,276.400 88.207,276.190 88.207 C 275.979 88.207,275.749 88.078,275.679 87.919 C 275.530 87.585,273.192 85.906,272.875 85.906 C 272.756 85.906,271.930 85.435,271.037 84.859 C 270.145 84.283,269.124 83.636,268.769 83.421 C 267.809 82.840,256.955 77.437,255.519 76.826 C 252.382 75.491,251.664 75.197,250.048 74.589 C 249.099 74.232,247.755 73.698,247.063 73.403 C 246.370 73.108,245.556 72.867,245.254 72.867 C 244.952 72.867,244.138 72.628,243.445 72.336 C 242.753 72.044,241.409 71.606,240.460 71.362 C 232.872 69.417,229.499 68.690,225.887 68.221 C 224.305 68.015,222.493 67.657,221.860 67.424 C 220.464 66.911,194.036 66.645,191.179 67.116 M175.455 70.004 C 173.945 70.696,174.993 70.700,177.181 70.010 C 178.685 69.536,178.759 69.467,177.756 69.472 C 177.124 69.475,176.088 69.715,175.455 70.004 M170.278 71.241 C 168.555 71.822,167.061 72.339,164.525 73.230 C 163.787 73.489,162.601 73.845,161.890 74.021 C 161.179 74.197,160.411 74.527,160.183 74.754 C 159.956 74.982,159.528 75.168,159.233 75.168 C 158.938 75.168,158.153 75.414,157.488 75.715 C 156.824 76.016,155.417 76.634,154.362 77.088 C 150.855 78.597,143.010 82.614,142.596 83.113 C 142.372 83.384,142.016 83.605,141.806 83.605 C 141.416 83.605,136.879 86.241,136.529 86.670 C 136.424 86.799,135.647 87.322,134.803 87.832 C 133.960 88.341,133.097 88.894,132.886 89.060 C 132.675 89.226,130.554 90.825,128.173 92.613 C 122.327 97.002,114.433 104.446,108.847 110.835 C 106.378 113.659,101.630 119.874,101.630 120.280 C 101.630 120.428,101.361 120.823,101.032 121.157 C 100.227 121.974,97.795 125.770,97.795 126.208 C 97.795 126.400,97.650 126.558,97.474 126.558 C 97.298 126.558,96.680 127.464,96.101 128.571 C 95.523 129.679,94.733 131.103,94.346 131.735 C 93.436 133.223,90.050 140.001,88.981 142.474 C 88.525 143.528,87.905 144.935,87.604 145.600 C 87.303 146.264,87.057 147.000,87.057 147.235 C 87.057 147.469,86.885 147.961,86.676 148.327 C 86.263 149.050,85.281 151.755,84.763 153.595 C 84.585 154.228,84.235 155.350,83.986 156.088 C 83.737 156.826,83.359 157.948,83.146 158.581 C 82.933 159.214,82.616 160.540,82.442 161.528 C 82.268 162.516,81.940 163.669,81.715 164.091 C 81.489 164.513,81.322 165.431,81.343 166.130 L 81.382 167.402 81.706 166.251 C 81.885 165.618,82.279 164.065,82.584 162.800 C 90.502 129.890,112.790 100.556,142.975 83.317 C 145.799 81.704,155.960 76.702,156.412 76.702 C 156.603 76.702,157.771 76.255,159.006 75.708 C 161.439 74.633,166.362 72.950,171.237 71.528 C 173.111 70.981,173.857 70.637,173.154 70.645 C 172.522 70.652,171.227 70.920,170.278 71.241 M201.151 139.981 C 199.463 140.114,212.546 140.255,230.224 140.294 L 262.366 140.364 262.235 173.826 C 262.116 204.363,262.047 207.433,261.445 208.965 C 261.083 209.888,260.804 211.096,260.825 211.649 C 260.863 212.603,260.880 212.594,261.148 211.472 C 261.303 210.821,261.540 210.111,261.674 209.895 C 263.274 207.306,263.913 140.833,262.345 139.994 C 261.533 139.560,206.623 139.548,201.151 139.981 M193.097 140.989 C 192.042 141.288,190.144 141.815,188.878 142.160 C 186.595 142.782,180.349 145.649,175.740 148.190 C 169.807 151.460,159.629 161.489,156.631 167.018 C 156.402 167.440,155.472 169.166,154.564 170.853 C 153.656 172.541,152.794 174.094,152.648 174.305 C 149.899 178.289,147.070 193.847,147.982 199.975 C 148.222 201.588,148.418 203.690,148.418 204.646 C 148.418 206.634,150.835 216.274,151.713 217.786 C 152.338 218.862,152.284 218.305,151.552 216.107 C 151.200 215.051,150.863 213.845,149.567 209.012 C 148.274 204.188,148.286 189.841,149.587 184.851 C 150.825 180.100,152.277 175.969,153.506 173.701 C 157.177 166.925,158.357 164.869,158.772 164.525 C 158.900 164.420,160.025 163.039,161.272 161.457 C 164.068 157.913,166.304 155.665,169.394 153.296 C 170.700 152.294,171.994 151.251,172.270 150.977 C 172.545 150.704,173.893 149.841,175.264 149.059 C 176.635 148.278,178.015 147.480,178.332 147.286 C 179.582 146.519,184.331 144.257,185.235 143.997 C 185.762 143.846,186.366 143.591,186.577 143.430 C 186.788 143.269,187.565 143.011,188.303 142.857 C 189.041 142.703,189.818 142.446,190.029 142.286 C 190.240 142.126,191.534 141.784,192.905 141.526 C 194.276 141.268,196.002 140.921,196.740 140.755 L 198.082 140.453 196.548 140.448 C 195.705 140.446,194.151 140.689,193.097 140.989 M200.051 154.215 C 197.759 154.391,195.688 154.696,195.449 154.894 C 195.210 155.091,194.340 155.379,193.516 155.533 C 192.692 155.687,191.570 156.046,191.023 156.332 C 190.476 156.617,189.675 156.852,189.243 156.853 C 188.810 156.854,188.292 157.018,188.092 157.217 C 187.892 157.415,186.347 158.299,184.660 159.181 C 182.972 160.063,181.317 160.979,180.981 161.217 C 177.960 163.355,172.196 168.778,172.196 169.483 C 172.196 169.709,172.052 169.895,171.876 169.895 C 171.337 169.895,168.594 173.847,167.195 176.641 C 166.465 178.098,165.726 179.395,165.552 179.522 C 165.379 179.649,165.092 180.340,164.915 181.056 C 164.591 182.365,164.139 183.786,163.312 186.098 C 163.067 186.783,162.825 188.380,162.774 189.645 L 162.682 191.946 162.981 189.837 C 163.367 187.116,165.338 180.879,166.434 178.907 C 166.903 178.063,167.654 176.683,168.103 175.839 C 171.061 170.283,177.989 163.309,183.588 160.254 C 190.389 156.542,195.118 155.042,201.601 154.540 C 209.618 153.919,247.569 154.069,248.112 154.724 C 248.460 155.143,248.541 161.024,248.446 179.124 C 248.346 198.462,248.408 202.473,248.778 200.335 C 249.546 195.891,249.458 155.170,248.678 154.390 C 248.000 153.712,208.462 153.570,200.051 154.215 M326.177 156.088 C 326.310 156.616,326.589 157.737,326.797 158.581 C 327.580 161.757,328.247 163.339,328.252 162.033 C 328.254 161.400,328.010 160.451,327.709 159.923 C 327.407 159.396,327.148 158.533,327.133 158.006 C 327.118 157.478,326.843 156.616,326.520 156.088 L 325.935 155.129 326.177 156.088 M328.317 163.823 C 328.299 164.175,328.523 165.470,328.815 166.700 C 333.294 185.548,332.390 210.668,326.568 229.147 C 326.302 229.990,325.707 231.889,325.245 233.365 C 324.484 235.797,323.778 237.750,322.886 239.885 C 322.710 240.307,322.140 241.687,321.619 242.953 C 308.222 275.534,274.826 305.909,243.365 314.130 C 242.716 314.299,240.978 314.790,239.501 315.221 C 235.294 316.448,228.120 318.002,223.586 318.669 L 221.477 318.979 223.394 319.020 C 224.449 319.043,226.002 318.879,226.846 318.655 C 227.689 318.432,229.479 318.095,230.822 317.907 C 232.165 317.718,233.459 317.411,233.698 317.224 C 233.937 317.037,234.978 316.774,236.011 316.639 C 237.045 316.504,238.080 316.241,238.312 316.054 C 238.544 315.868,239.511 315.589,240.460 315.436 C 241.409 315.283,242.359 315.030,242.570 314.874 C 242.780 314.718,243.643 314.408,244.487 314.185 C 246.165 313.743,248.071 313.089,249.856 312.344 C 250.489 312.080,251.783 311.565,252.733 311.200 C 260.128 308.355,276.549 299.433,277.213 297.898 C 277.283 297.736,277.496 297.603,277.685 297.603 C 278.175 297.603,285.331 292.151,285.331 291.777 C 285.331 291.606,285.486 291.467,285.675 291.467 C 286.588 291.467,298.109 280.349,301.373 276.318 C 302.569 274.842,303.770 273.399,304.042 273.112 C 305.049 272.049,308.993 266.641,310.792 263.854 C 311.814 262.272,312.975 260.510,313.372 259.939 C 313.769 259.367,314.094 258.814,314.094 258.709 C 314.094 258.605,314.540 257.864,315.084 257.064 C 315.629 256.264,316.499 254.746,317.018 253.691 C 317.537 252.637,318.114 251.515,318.300 251.198 C 318.601 250.688,320.339 246.953,322.046 243.145 C 322.377 242.407,322.880 241.344,323.165 240.785 C 323.449 240.225,323.682 239.439,323.682 239.040 C 323.682 238.640,323.868 238.127,324.095 237.899 C 324.322 237.672,324.652 236.904,324.828 236.193 C 325.004 235.481,325.361 234.295,325.620 233.557 C 325.879 232.819,326.304 231.611,326.564 230.872 C 328.517 225.324,330.405 215.768,331.716 204.794 C 332.197 200.764,332.196 186.127,331.715 181.975 C 330.636 172.680,328.459 161.053,328.317 163.823 M80.597 169.605 C 80.080 171.933,79.448 176.125,78.992 180.249 C 78.564 184.122,78.574 203.119,79.007 206.711 C 79.531 211.057,80.438 216.709,80.855 218.217 C 81.439 220.332,81.366 218.359,80.741 215.157 C 78.275 202.517,78.295 185.306,80.792 171.526 C 81.482 167.716,81.336 166.274,80.597 169.605 M161.939 194.727 C 161.614 196.950,161.863 201.945,162.373 203.452 C 162.444 203.663,162.499 201.203,162.493 197.987 C 162.483 191.330,162.457 191.180,161.939 194.727 M247.816 204.872 C 247.778 205.653,247.586 206.688,247.389 207.173 C 247.192 207.657,246.579 209.521,246.026 211.314 C 244.194 217.261,238.479 226.098,234.503 229.130 C 233.809 229.660,233.009 230.315,232.727 230.585 C 230.805 232.425,228.264 234.035,223.202 236.620 C 214.790 240.917,197.669 241.515,190.241 237.771 C 189.913 237.606,188.869 237.162,187.919 236.784 C 184.957 235.604,181.016 233.131,181.016 232.451 C 181.016 232.102,182.656 230.183,184.660 228.188 C 186.663 226.192,188.303 224.359,188.303 224.114 C 188.303 223.539,179.226 214.382,178.656 214.382 C 178.419 214.382,176.517 216.059,174.429 218.110 C 170.438 222.031,169.964 222.219,168.928 220.288 C 168.713 219.887,168.066 218.829,167.490 217.937 C 166.914 217.044,166.443 216.160,166.443 215.971 C 166.443 215.782,165.992 214.614,165.440 213.375 C 164.889 212.136,164.039 209.569,163.553 207.670 C 162.951 205.320,162.659 204.620,162.638 205.477 C 162.621 206.170,162.867 207.356,163.183 208.113 C 163.500 208.870,163.758 209.867,163.758 210.328 C 163.758 210.790,164.012 211.502,164.321 211.911 C 164.631 212.321,164.890 212.923,164.897 213.249 C 164.911 213.926,166.948 217.996,168.487 220.422 C 169.996 222.802,170.567 222.619,174.757 218.408 C 176.751 216.405,178.510 214.765,178.665 214.765 C 179.046 214.765,187.919 223.767,187.919 224.153 C 187.919 224.320,186.280 226.080,184.276 228.065 C 179.420 232.874,179.626 233.507,187.152 236.916 C 190.500 238.432,191.795 238.926,192.424 238.926 C 192.815 238.926,193.299 239.084,193.500 239.276 C 194.542 240.277,204.557 241.328,208.245 240.824 C 209.827 240.607,212.288 240.284,213.714 240.106 C 215.140 239.927,216.520 239.611,216.782 239.404 C 217.044 239.196,217.926 238.906,218.743 238.758 C 219.560 238.611,220.509 238.347,220.853 238.172 C 221.196 237.997,222.988 237.103,224.836 236.185 C 229.497 233.869,229.608 233.804,231.392 232.286 C 232.267 231.543,233.598 230.446,234.352 229.849 C 236.024 228.524,236.363 228.172,238.544 225.503 C 239.493 224.343,240.584 223.049,240.969 222.627 C 241.355 222.205,242.129 220.911,242.690 219.751 C 243.251 218.591,243.808 217.555,243.927 217.450 C 244.348 217.079,245.829 213.968,245.829 213.455 C 245.829 213.169,246.087 212.441,246.402 211.837 C 246.717 211.233,246.976 210.428,246.978 210.048 C 246.979 209.668,247.248 208.840,247.575 208.206 C 247.950 207.481,248.118 206.387,248.028 205.253 C 247.904 203.686,247.876 203.636,247.816 204.872 M260.081 213.823 C 259.836 214.361,259.636 215.100,259.636 215.465 C 259.636 215.830,259.403 216.469,259.118 216.885 C 258.833 217.301,258.474 218.157,258.320 218.788 C 258.167 219.419,257.923 220.023,257.778 220.130 C 257.634 220.238,257.041 221.275,256.462 222.435 C 252.802 229.757,247.597 236.488,242.376 240.653 C 238.747 243.547,236.223 245.381,234.899 246.087 C 234.056 246.537,232.761 247.256,232.023 247.685 C 229.429 249.193,226.671 250.454,222.819 251.894 C 221.659 252.328,220.990 252.694,221.333 252.708 C 221.677 252.721,223.230 252.234,224.785 251.626 C 228.658 250.109,228.573 250.148,230.297 249.156 C 231.141 248.671,233.021 247.626,234.475 246.835 C 235.929 246.044,237.830 244.847,238.698 244.175 C 243.265 240.641,246.289 237.900,248.147 235.611 C 249.284 234.208,250.396 232.871,250.617 232.638 C 253.366 229.738,258.391 220.521,260.223 215.016 C 260.893 213.003,260.803 212.240,260.081 213.823 M152.253 219.035 C 152.253 219.832,155.122 225.501,156.886 228.188 C 158.063 229.981,159.146 231.777,159.294 232.180 C 159.510 232.769,158.265 234.224,152.959 239.585 L 146.356 246.257 151.413 251.313 L 156.469 256.370 162.894 250.000 C 170.678 242.283,169.744 242.638,174.301 245.664 C 176.344 247.021,178.086 248.130,178.173 248.130 C 178.376 248.130,183.284 250.355,184.250 250.885 C 185.121 251.364,186.116 251.669,190.934 252.938 C 192.908 253.458,194.720 253.872,194.960 253.859 C 195.666 253.820,193.655 253.077,191.371 252.534 C 187.355 251.577,185.973 251.187,185.318 250.824 C 184.956 250.623,183.797 250.100,182.742 249.662 C 181.687 249.224,180.366 248.614,179.807 248.306 C 179.247 247.999,178.528 247.747,178.209 247.747 C 177.890 247.747,177.571 247.617,177.501 247.459 C 177.343 247.105,175.005 245.446,174.663 245.446 C 174.527 245.446,173.729 244.902,172.890 244.238 C 170.315 242.198,170.073 242.325,162.913 249.434 L 156.522 255.780 151.895 251.208 C 149.350 248.693,147.267 246.483,147.267 246.297 C 147.267 246.111,150.133 243.079,153.635 239.559 C 159.339 233.826,159.977 233.056,159.754 232.169 C 159.503 231.167,158.055 228.870,157.526 228.635 C 157.368 228.565,157.239 228.358,157.239 228.175 C 157.239 227.992,156.752 227.101,156.157 226.194 C 155.563 225.287,154.592 223.423,154.001 222.052 C 153.040 219.826,152.253 218.467,152.253 219.035 M81.337 220.484 C 81.319 220.993,81.579 222.373,81.915 223.552 C 82.251 224.731,82.784 226.644,83.098 227.804 C 83.413 228.965,83.844 230.431,84.055 231.064 C 84.266 231.697,84.585 232.733,84.763 233.365 C 85.443 235.785,86.617 238.859,87.667 240.971 C 87.964 241.568,88.207 242.211,88.207 242.400 C 88.207 243.128,92.574 252.187,94.310 255.062 C 94.747 255.785,95.222 256.635,95.367 256.951 C 95.511 257.267,96.074 258.217,96.616 259.060 C 97.159 259.904,97.689 260.769,97.795 260.981 C 98.449 262.300,102.197 267.689,102.461 267.689 C 102.637 267.689,102.780 267.887,102.780 268.129 C 102.780 268.496,105.110 271.652,105.853 272.291 C 105.976 272.397,106.883 273.543,107.870 274.838 C 110.138 277.815,121.276 288.944,124.178 291.132 C 125.381 292.039,126.676 293.091,127.055 293.469 C 127.433 293.847,128.210 294.456,128.780 294.822 C 129.351 295.188,129.990 295.621,130.201 295.784 C 132.554 297.602,134.256 298.754,134.589 298.754 C 134.812 298.754,134.995 298.898,134.995 299.076 C 134.995 299.253,135.384 299.605,135.858 299.858 C 136.333 300.111,137.066 300.530,137.488 300.790 C 139.502 302.030,141.423 303.207,142.105 303.620 C 145.451 305.645,158.515 311.796,159.445 311.784 C 160.200 311.774,159.159 311.239,155.321 309.664 C 153.065 308.738,146.779 305.732,145.350 304.895 C 145.034 304.709,143.221 303.652,141.323 302.544 C 114.875 287.116,93.299 260.251,84.918 232.311 C 84.618 231.309,84.100 229.583,83.768 228.476 C 83.435 227.368,82.922 225.427,82.626 224.161 C 81.761 220.450,81.377 219.355,81.337 220.484 M217.450 253.332 C 216.578 253.662,216.376 253.845,216.874 253.856 C 217.296 253.864,218.332 253.623,219.175 253.319 C 220.333 252.902,220.474 252.773,219.751 252.795 C 219.223 252.811,218.188 253.053,217.450 253.332 M198.274 254.350 C 202.141 254.926,210.962 254.938,213.806 254.372 C 216.026 253.930,215.979 253.923,212.464 254.176 C 208.220 254.480,205.008 254.475,199.425 254.153 L 195.398 253.921 198.274 254.350 M160.859 312.337 C 161.269 312.670,161.847 312.943,162.144 312.943 C 162.441 312.943,163.228 313.186,163.892 313.483 C 165.505 314.203,170.248 315.628,171.033 315.628 C 171.377 315.628,171.823 315.781,172.023 315.969 C 172.223 316.156,173.337 316.492,174.497 316.714 C 176.820 317.158,179.521 317.743,182.167 318.375 C 183.116 318.601,185.187 318.926,186.769 319.097 C 188.351 319.268,190.817 319.607,192.249 319.851 C 195.617 320.425,218.649 320.162,220.326 319.531 C 221.372 319.137,221.303 319.116,219.559 319.292 C 199.837 321.291,181.874 319.055,160.882 311.989 C 160.126 311.734,160.125 311.739,160.859 312.337 " stroke="none" fill="#a5c895" fill-rule="evenodd"></path><path id="path3" d="M294.535 104.123 C 295.681 105.283,296.704 106.232,296.810 106.232 C 296.915 106.232,296.064 105.283,294.919 104.123 C 293.773 102.963,292.749 102.013,292.644 102.013 C 292.538 102.013,293.389 102.963,294.535 104.123 M215.025 154.458 C 220.969 154.517,230.806 154.517,236.885 154.458 C 242.965 154.399,238.102 154.350,226.079 154.350 C 214.056 154.350,209.082 154.399,215.025 154.458 M331.441 200.575 C 331.441 201.314,331.520 201.616,331.616 201.246 C 331.713 200.877,331.713 200.273,331.616 199.904 C 331.520 199.535,331.441 199.837,331.441 200.575 M183.497 229.434 L 181.208 231.831 183.605 229.542 C 185.832 227.416,186.177 227.037,185.894 227.037 C 185.835 227.037,184.756 228.116,183.497 229.434 M162.987 249.952 L 157.047 255.992 163.087 250.053 C 166.409 246.786,169.128 244.068,169.128 244.012 C 169.128 243.738,168.505 244.341,162.987 249.952 M111.601 278.548 C 111.601 278.614,112.162 279.174,112.848 279.794 L 114.094 280.920 112.968 279.674 C 111.918 278.512,111.601 278.251,111.601 278.548 " stroke="none" fill="#8cbc7c" fill-rule="evenodd"></path><path id="path4" d="M200.096 67.401 C 202.891 67.466,207.464 67.466,210.259 67.401 C 213.054 67.335,210.767 67.282,205.177 67.282 C 199.588 67.282,197.301 67.335,200.096 67.401 M191.559 67.721 C 191.346 67.810,189.879 68.047,188.299 68.246 C 185.449 68.605,185.456 68.607,189.202 68.411 C 192.971 68.213,196.180 67.539,193.289 67.552 C 192.550 67.555,191.772 67.631,191.559 67.721 M216.874 67.879 C 217.507 68.087,219.664 68.335,221.668 68.431 C 224.665 68.575,224.903 68.551,223.011 68.292 C 218.366 67.658,215.642 67.475,216.874 67.879 M183.644 68.833 C 183.542 68.934,182.521 69.188,181.375 69.395 L 179.291 69.773 181.716 69.597 C 184.115 69.423,186.405 68.686,184.628 68.660 C 184.188 68.653,183.746 68.731,183.644 68.833 M226.020 69.049 C 226.409 69.294,227.790 69.555,229.088 69.630 C 231.071 69.743,231.203 69.716,229.914 69.457 C 225.880 68.650,225.285 68.587,226.020 69.049 M176.031 70.393 L 174.305 70.887 175.647 70.901 C 176.385 70.908,177.507 70.678,178.140 70.388 C 179.639 69.701,178.435 69.704,176.031 70.393 M232.598 70.388 C 233.231 70.678,234.267 70.911,234.899 70.906 C 235.822 70.899,235.670 70.792,234.132 70.365 C 231.722 69.696,231.107 69.705,232.598 70.388 M170.853 71.720 C 169.588 72.096,168.121 72.598,167.593 72.835 L 166.635 73.267 167.593 73.089 C 169.380 72.759,171.999 72.013,173.154 71.504 C 174.763 70.797,173.591 70.906,170.853 71.720 M237.340 71.539 C 238.050 71.848,238.973 72.100,239.392 72.100 C 239.810 72.100,240.696 72.334,241.361 72.621 C 242.026 72.908,243.864 73.536,245.446 74.018 C 247.028 74.500,248.486 75.042,248.686 75.223 C 248.887 75.403,249.318 75.557,249.645 75.564 C 249.972 75.571,250.930 75.911,251.774 76.318 C 252.617 76.726,253.567 77.058,253.883 77.057 C 255.049 77.053,247.142 74.010,241.994 72.482 C 240.412 72.012,238.722 71.475,238.237 71.288 C 236.757 70.719,235.962 70.941,237.340 71.539 M163.055 74.223 C 160.459 75.166,159.803 75.551,160.796 75.551 C 161.135 75.551,161.507 75.398,161.622 75.211 C 161.738 75.024,162.431 74.759,163.163 74.622 C 164.564 74.359,167.046 73.224,166.059 73.298 C 165.743 73.321,164.391 73.737,163.055 74.223 M154.938 77.432 C 138.898 84.695,127.816 92.285,115.995 104.107 C 109.959 110.143,102.525 118.888,103.429 118.888 C 103.763 118.888,105.849 116.402,105.849 116.005 C 105.849 115.873,106.064 115.524,106.328 115.230 C 106.592 114.936,106.980 114.474,107.191 114.203 C 110.561 109.871,121.760 98.673,126.092 95.302 C 126.363 95.091,126.794 94.746,127.051 94.535 C 127.307 94.324,128.250 93.653,129.147 93.045 C 130.043 92.436,130.777 91.809,130.777 91.651 C 130.777 91.494,131.079 91.260,131.448 91.133 C 132.026 90.933,136.366 88.072,137.488 87.150 C 137.699 86.977,138.993 86.183,140.364 85.385 C 141.735 84.587,143.116 83.780,143.432 83.591 C 144.274 83.088,154.101 78.279,155.896 77.491 C 159.144 76.066,160.094 75.569,159.540 75.589 C 159.223 75.599,157.152 76.429,154.938 77.432 M255.203 77.673 C 255.612 77.982,256.216 78.235,256.545 78.233 C 256.874 78.232,256.649 77.973,256.044 77.658 C 254.654 76.933,254.234 76.940,255.203 77.673 M257.718 78.811 C 257.981 79.127,258.377 79.386,258.599 79.386 C 259.501 79.386,266.893 83.362,272.236 86.720 C 274.209 87.960,275.978 88.974,276.166 88.974 C 276.355 88.974,276.510 89.133,276.510 89.326 C 276.510 89.520,277.157 90.069,277.948 90.546 C 278.739 91.023,280.508 92.287,281.879 93.355 C 283.250 94.423,284.600 95.470,284.879 95.683 C 287.527 97.701,296.132 106.087,300.299 110.711 C 303.045 113.758,303.262 114.023,304.219 115.515 C 304.585 116.086,305.201 116.862,305.587 117.241 C 305.973 117.619,306.806 118.706,307.437 119.655 C 308.068 120.604,309.392 122.556,310.380 123.994 C 311.368 125.431,312.176 126.711,312.176 126.840 C 312.176 126.968,312.411 127.345,312.697 127.678 C 313.171 128.229,315.103 131.623,316.849 134.971 C 317.227 135.697,317.733 136.473,317.973 136.697 C 318.214 136.921,317.588 135.551,316.583 133.653 C 305.143 112.039,285.638 92.767,263.532 81.236 C 258.695 78.713,257.076 78.038,257.718 78.811 M100.002 123.556 C 94.564 131.857,87.236 146.041,87.994 146.799 C 88.095 146.900,88.380 146.486,88.626 145.879 C 89.516 143.687,90.120 142.390,92.629 137.296 C 94.032 134.449,95.591 131.429,96.094 130.585 C 96.598 129.741,97.186 128.706,97.401 128.284 C 97.874 127.359,98.681 126.055,98.945 125.791 C 99.390 125.347,100.863 123.117,100.863 122.890 C 100.863 122.753,101.401 121.962,102.060 121.131 C 102.718 120.299,103.165 119.528,103.052 119.415 C 102.940 119.303,101.567 121.166,100.002 123.556 M318.335 137.552 C 318.307 138.121,320.247 142.010,320.455 141.801 C 320.541 141.716,320.104 140.624,319.484 139.375 C 318.864 138.126,318.347 137.306,318.335 137.552 M201.780 139.241 C 200.016 139.413,198.521 139.606,198.456 139.671 C 198.391 139.736,212.509 139.736,229.830 139.671 C 247.150 139.606,261.725 139.654,262.219 139.777 L 263.116 140.003 263.006 172.371 C 262.945 190.174,263.005 204.537,263.139 204.288 C 263.667 203.306,263.692 140.049,263.164 139.521 C 262.583 138.939,207.448 138.687,201.780 139.241 M192.905 140.592 L 191.946 141.175 193.097 140.901 C 193.730 140.750,195.024 140.504,195.973 140.355 L 197.699 140.083 195.781 140.046 C 194.677 140.024,193.457 140.256,192.905 140.592 M188.727 141.547 C 187.202 142.157,187.984 142.248,190.029 141.699 C 191.529 141.295,191.696 141.183,190.796 141.182 C 190.163 141.181,189.232 141.345,188.727 141.547 M185.404 142.845 C 184.448 143.568,184.812 143.578,186.437 142.872 C 187.389 142.459,187.520 142.308,186.938 142.297 C 186.504 142.289,185.814 142.535,185.404 142.845 M320.616 142.688 C 320.615 143.017,320.867 143.621,321.177 144.030 C 321.909 144.999,321.916 144.579,321.191 143.189 C 320.876 142.584,320.617 142.359,320.616 142.688 M182.550 143.950 C 182.023 144.232,180.556 145.032,179.291 145.728 C 178.025 146.424,176.250 147.390,175.346 147.874 C 167.386 152.142,158.582 161.733,153.725 171.429 C 153.250 172.378,152.620 173.446,152.326 173.803 C 152.032 174.160,151.857 174.650,151.937 174.891 C 152.018 175.133,152.468 174.582,152.938 173.667 C 155.935 167.830,157.949 164.661,161.071 160.866 C 164.457 156.749,165.791 155.449,170.080 152.087 C 171.138 151.258,172.090 150.471,172.196 150.338 C 172.301 150.206,173.509 149.448,174.880 148.655 C 178.220 146.723,178.472 146.585,181.740 144.896 C 183.299 144.091,184.334 143.433,184.041 143.435 C 183.749 143.436,183.078 143.668,182.550 143.950 M321.792 145.350 C 321.791 145.666,322.124 146.616,322.531 147.459 C 322.939 148.303,323.278 149.189,323.285 149.429 C 323.292 149.668,323.556 150.359,323.871 150.963 C 324.186 151.567,324.451 152.407,324.459 152.828 C 324.470 153.446,325.599 155.510,325.599 154.914 C 325.599 154.603,323.005 147.483,322.394 146.117 C 322.064 145.379,321.793 145.034,321.792 145.350 M87.133 148.497 C 85.861 151.789,83.973 157.766,84.092 158.123 C 84.165 158.343,84.530 157.501,84.903 156.251 C 85.276 155.001,85.730 153.634,85.911 153.212 C 86.093 152.790,86.352 152.013,86.488 151.486 C 86.623 150.959,86.991 149.959,87.305 149.264 C 87.619 148.569,87.819 147.828,87.748 147.617 C 87.678 147.407,87.401 147.803,87.133 148.497 M223.682 154.840 L 247.747 154.943 247.799 178.814 C 247.834 195.027,247.957 201.577,248.184 199.233 C 248.367 197.335,248.473 186.548,248.419 175.264 L 248.322 154.746 223.969 154.742 L 199.616 154.737 223.682 154.840 M195.398 155.524 C 193.343 156.201,194.893 156.214,197.315 155.540 C 198.819 155.122,198.984 155.008,198.082 155.012 C 197.450 155.015,196.242 155.246,195.398 155.524 M325.630 156.088 C 325.628 156.616,325.873 157.478,326.174 158.006 C 326.883 159.245,326.888 158.613,326.186 156.663 C 325.748 155.448,325.632 155.328,325.630 156.088 M191.755 156.688 C 190.544 157.146,190.509 157.198,191.394 157.217 C 191.933 157.229,192.710 156.985,193.119 156.676 C 194.015 155.999,193.565 156.003,191.755 156.688 M185.427 159.334 C 175.750 164.538,167.636 174.073,164.691 183.701 C 164.337 184.861,163.809 186.506,163.519 187.357 C 163.229 188.208,163.011 189.416,163.035 190.042 C 163.079 191.164,163.084 191.161,163.388 189.837 C 163.978 187.274,164.593 185.039,164.918 184.276 C 165.097 183.854,165.358 183.078,165.497 182.550 C 165.929 180.907,168.693 175.561,170.260 173.338 C 173.088 169.324,175.487 166.771,179.194 163.829 C 181.739 161.810,183.090 160.990,187.919 158.532 C 189.291 157.834,190.153 157.265,189.837 157.267 C 189.521 157.269,187.536 158.199,185.427 159.334 M83.301 160.329 C 83.028 161.212,82.875 162.006,82.961 162.092 C 83.234 162.365,84.062 160.013,83.927 159.353 C 83.855 159.006,83.574 159.445,83.301 160.329 M326.780 160.307 C 326.778 160.834,327.024 161.697,327.325 162.224 C 328.033 163.463,328.038 162.831,327.336 160.882 C 326.898 159.666,326.783 159.547,326.780 160.307 M82.170 164.919 C 81.908 166.042,81.761 167.028,81.844 167.111 C 82.122 167.389,82.895 164.548,82.770 163.708 C 82.693 163.195,82.464 163.656,82.170 164.919 M327.962 164.717 C 327.947 165.561,328.188 166.769,328.497 167.402 L 329.058 168.552 328.820 167.210 C 328.689 166.472,328.448 165.264,328.285 164.525 L 327.988 163.183 327.962 164.717 M81.005 170.426 C 80.734 171.878,80.594 173.147,80.692 173.245 C 81.014 173.567,81.735 170.251,81.614 169.004 C 81.524 168.074,81.379 168.411,81.005 170.426 M329.128 170.278 C 329.118 171.227,329.352 172.694,329.648 173.538 L 330.186 175.072 329.950 173.346 C 329.821 172.397,329.587 170.930,329.431 170.086 L 329.147 168.552 329.128 170.278 M80.017 176.510 C 79.882 178.039,79.685 180.153,79.581 181.208 C 79.417 182.860,79.444 182.967,79.777 181.975 C 80.197 180.725,80.775 173.730,80.458 173.730 C 80.352 173.730,80.153 174.981,80.017 176.510 M330.447 179.291 C 330.555 181.611,330.798 184.199,330.985 185.043 C 331.378 186.805,331.094 181.765,330.564 177.565 C 330.322 175.648,330.295 176.047,330.447 179.291 M151.244 176.331 C 151.009 176.707,150.695 177.568,150.547 178.244 C 150.398 178.920,150.117 179.572,149.923 179.692 C 149.728 179.813,149.575 180.375,149.583 180.943 C 149.593 181.671,149.864 181.240,150.501 179.482 C 150.998 178.111,151.528 176.687,151.678 176.318 C 152.032 175.449,151.790 175.456,151.244 176.331 M149.215 182.815 C 149.199 183.277,149.012 183.762,148.802 183.893 C 148.591 184.023,148.430 184.680,148.445 185.353 C 148.469 186.471,148.521 186.416,149.041 184.723 C 149.354 183.703,149.529 182.668,149.428 182.422 C 149.328 182.176,149.232 182.353,149.215 182.815 M79.169 193.480 C 79.169 198.754,79.223 200.964,79.289 198.392 C 79.355 195.821,79.356 191.506,79.290 188.805 C 79.224 186.103,79.169 188.207,79.169 193.480 M147.828 188.961 C 147.375 191.643,147.446 201.079,147.943 204.410 L 148.372 207.287 148.207 204.410 C 148.117 202.828,147.929 199.939,147.791 197.990 C 147.632 195.762,147.723 193.160,148.035 190.984 C 148.548 187.402,148.375 185.715,147.828 188.961 M331.508 193.289 C 331.508 196.769,331.566 198.193,331.637 196.453 C 331.708 194.712,331.708 191.865,331.637 190.125 C 331.566 188.384,331.508 189.808,331.508 193.289 M162.546 195.110 C 162.475 196.323,162.514 198.696,162.633 200.384 C 162.821 203.038,162.860 202.741,162.921 198.178 C 162.993 192.819,162.782 191.100,162.546 195.110 M330.858 201.918 C 330.588 203.657,330.150 211.814,330.374 210.930 C 330.706 209.622,331.447 201.436,331.279 200.931 C 331.179 200.631,330.989 201.075,330.858 201.918 M79.646 206.136 C 80.121 211.361,80.504 213.345,80.312 209.588 C 80.215 207.689,79.971 205.532,79.769 204.794 C 79.488 203.768,79.459 204.084,79.646 206.136 M163.036 204.637 C 162.981 205.153,164.310 210.387,164.829 211.697 C 165.038 212.224,165.519 213.432,165.898 214.382 C 166.945 217.001,169.482 221.192,170.184 221.461 C 170.626 221.631,171.877 220.635,174.481 218.041 C 179.006 213.532,178.400 213.477,183.803 218.894 C 189.256 224.361,189.222 223.993,184.676 228.515 C 180.595 232.575,180.591 232.602,183.732 234.473 C 186.591 236.176,186.705 235.948,183.893 234.149 C 181.175 232.410,181.172 232.424,185.235 228.380 C 189.629 224.005,189.677 224.370,183.983 218.690 C 178.343 213.064,178.786 213.111,174.241 217.656 C 171.421 220.477,170.468 221.218,170.081 220.896 C 169.397 220.329,166.826 215.977,166.826 215.386 C 166.826 215.125,166.573 214.577,166.263 214.167 C 165.954 213.758,165.694 213.164,165.686 212.848 C 165.678 212.531,165.424 211.799,165.122 211.220 C 164.820 210.641,164.454 209.346,164.309 208.343 C 164.164 207.340,163.913 206.347,163.751 206.136 C 163.590 205.925,163.373 205.407,163.269 204.986 C 163.165 204.564,163.060 204.407,163.036 204.637 M247.416 205.251 C 247.387 205.818,247.191 206.389,246.980 206.520 C 246.769 206.650,246.609 207.221,246.623 207.789 C 246.647 208.701,246.715 208.643,247.212 207.287 C 247.521 206.443,247.705 205.407,247.621 204.986 C 247.510 204.429,247.454 204.501,247.416 205.251 M262.425 206.711 C 262.425 207.661,262.499 208.049,262.591 207.574 C 262.682 207.100,262.682 206.323,262.591 205.849 C 262.499 205.374,262.425 205.762,262.425 206.711 M148.444 208.106 C 148.430 208.556,148.670 209.505,148.978 210.215 C 149.696 211.868,149.714 211.237,149.013 209.012 C 148.707 208.042,148.458 207.645,148.444 208.106 M261.612 210.275 C 261.327 211.250,261.184 212.271,261.294 212.543 C 261.403 212.816,261.506 212.599,261.523 212.061 C 261.540 211.523,261.740 210.896,261.969 210.667 C 262.198 210.439,262.327 209.858,262.257 209.377 C 262.160 208.719,262.001 208.941,261.612 210.275 M245.925 210.060 C 245.662 210.623,245.453 211.351,245.461 211.678 C 245.469 212.005,245.732 211.681,246.046 210.959 C 246.725 209.395,246.616 208.586,245.925 210.060 M149.594 212.708 C 149.580 213.158,149.821 214.107,150.129 214.817 C 150.846 216.470,150.865 215.839,150.164 213.615 C 149.858 212.644,149.609 212.247,149.594 212.708 M329.651 212.730 C 329.506 213.106,329.322 214.537,329.240 215.911 C 329.158 217.285,329.168 217.977,329.263 217.450 C 329.358 216.922,329.623 215.571,329.852 214.448 C 330.267 212.416,330.151 211.426,329.651 212.730 M245.095 213.039 C 245.063 213.461,244.785 214.141,244.475 214.551 C 244.165 214.960,243.912 215.478,243.913 215.701 C 243.914 215.925,244.268 215.528,244.700 214.819 C 245.132 214.110,245.411 213.247,245.319 212.901 C 245.190 212.418,245.138 212.450,245.095 213.039 M80.602 213.806 C 80.593 214.228,80.819 215.609,81.105 216.874 C 81.583 218.997,81.623 219.056,81.626 217.641 C 81.629 216.102,80.631 212.367,80.602 213.806 M260.454 214.575 C 260.176 215.344,260.028 216.052,260.124 216.148 C 260.384 216.408,261.270 214.108,261.103 213.607 C 261.024 213.370,260.732 213.806,260.454 214.575 M150.728 216.747 C 150.723 217.099,150.965 217.876,151.265 218.473 C 151.565 219.070,152.711 221.414,153.812 223.682 C 154.913 225.949,155.961 227.804,156.143 227.804 C 156.324 227.804,156.472 227.968,156.472 228.169 C 156.472 228.369,156.989 229.300,157.622 230.238 C 159.271 232.681,159.375 232.496,152.445 239.461 C 148.965 242.959,146.117 246.025,146.117 246.274 C 146.117 246.956,155.773 256.568,156.459 256.568 C 156.787 256.568,159.899 253.720,163.375 250.240 C 170.643 242.961,169.759 243.323,173.829 245.957 C 177.413 248.276,178.498 248.881,181.208 250.069 C 182.263 250.532,183.584 251.148,184.144 251.438 C 184.703 251.728,185.394 251.964,185.678 251.963 C 186.346 251.960,184.682 251.098,180.716 249.394 C 178.968 248.643,176.897 247.570,176.114 247.009 C 173.752 245.320,170.682 243.528,170.149 243.528 C 169.873 243.528,166.906 246.289,163.555 249.664 C 160.204 253.038,157.163 255.895,156.797 256.011 C 156.171 256.209,146.500 247.087,146.500 246.299 C 146.500 246.141,149.348 243.169,152.828 239.693 C 160.120 232.411,159.931 232.905,157.082 228.625 C 155.047 225.566,154.297 224.164,152.643 220.326 C 151.157 216.877,150.737 216.091,150.728 216.747 M242.393 218.313 C 239.738 224.047,232.540 231.121,225.695 234.724 C 224.008 235.612,222.463 236.490,222.263 236.674 C 222.062 236.858,221.599 237.009,221.233 237.009 C 220.401 237.009,218.435 237.739,218.661 237.964 C 218.988 238.291,222.284 237.057,224.736 235.688 C 226.107 234.923,227.747 234.055,228.380 233.758 C 229.962 233.015,235.189 228.570,237.075 226.362 C 240.786 222.019,241.281 221.334,242.888 218.313 C 243.478 217.205,243.817 216.299,243.643 216.299 C 243.468 216.299,242.906 217.205,242.393 218.313 M259.053 218.415 C 258.659 219.466,257.939 220.970,257.453 221.757 C 256.505 223.288,256.353 223.764,256.924 223.411 C 257.464 223.077,260.071 217.415,259.909 216.928 C 259.831 216.695,259.446 217.363,259.053 218.415 M328.328 219.788 C 328.093 220.463,327.915 221.551,327.932 222.205 C 327.956 223.095,328.102 222.825,328.512 221.130 C 329.113 218.644,329.004 217.849,328.328 219.788 M81.734 219.751 C 81.727 220.067,81.961 221.189,82.254 222.244 C 82.673 223.752,82.785 223.916,82.783 223.011 C 82.780 221.854,81.756 218.675,81.734 219.751 M327.178 224.774 C 326.942 225.449,326.762 226.364,326.776 226.807 C 326.791 227.250,327.061 226.775,327.375 225.750 C 328.013 223.672,327.848 222.852,327.178 224.774 M255.191 225.977 C 254.577 227.083,254.007 228.163,253.923 228.376 C 253.378 229.769,246.160 238.182,244.042 239.893 C 243.021 240.718,242.100 241.487,241.994 241.603 C 241.159 242.518,237.611 245.172,236.050 246.050 C 234.995 246.643,233.442 247.516,232.598 247.990 C 228.808 250.119,224.603 251.973,221.860 252.723 L 220.709 253.037 221.883 253.077 C 222.528 253.098,223.391 252.863,223.800 252.553 C 224.210 252.243,224.833 251.984,225.185 251.978 C 225.784 251.966,231.218 249.392,231.640 248.920 C 231.745 248.802,232.694 248.290,233.749 247.782 C 236.061 246.670,239.268 244.599,240.511 243.417 C 241.011 242.942,242.282 241.869,243.337 241.032 C 245.526 239.295,247.236 237.570,249.225 235.091 C 249.987 234.142,251.283 232.589,252.105 231.640 C 252.928 230.690,253.842 229.396,254.137 228.763 C 254.432 228.130,255.113 226.864,255.650 225.949 C 256.188 225.034,256.556 224.213,256.468 224.125 C 256.380 224.037,255.806 224.871,255.191 225.977 M82.859 224.736 C 82.854 225.053,83.098 226.002,83.402 226.846 C 83.760 227.838,83.961 228.090,83.972 227.561 C 83.981 227.110,83.736 226.161,83.428 225.452 C 83.120 224.742,82.864 224.420,82.859 224.736 M326.079 228.852 C 325.815 229.415,325.611 230.229,325.626 230.661 C 325.643 231.158,325.858 230.889,326.208 229.933 C 326.862 228.148,326.770 227.378,326.079 228.852 M83.991 228.807 C 83.984 229.999,88.682 242.678,88.895 242.041 C 88.963 241.835,88.664 240.888,88.230 239.934 C 87.795 238.981,87.440 238.039,87.440 237.841 C 87.440 237.642,87.182 236.985,86.867 236.381 C 86.552 235.777,86.293 234.991,86.292 234.634 C 86.291 234.278,86.132 233.888,85.939 233.769 C 85.747 233.650,85.470 232.850,85.325 231.990 C 85.072 230.490,83.996 227.923,83.991 228.807 M324.926 232.718 C 324.673 233.288,324.354 234.318,324.216 235.006 C 324.079 235.694,323.816 236.350,323.632 236.464 C 323.448 236.578,323.303 236.962,323.310 237.319 C 323.327 238.291,323.826 237.315,324.816 234.375 C 325.667 231.847,325.729 230.902,324.926 232.718 M189.084 237.147 C 190.673 237.845,192.572 238.516,193.302 238.638 C 194.033 238.761,194.961 238.991,195.365 239.150 C 195.853 239.343,196.013 239.301,195.842 239.025 C 195.701 238.796,194.853 238.497,193.958 238.360 C 192.438 238.128,191.231 237.686,188.560 236.386 C 187.962 236.096,187.186 235.863,186.834 235.868 C 186.482 235.874,187.494 236.449,189.084 237.147 M215.479 238.692 C 214.604 239.148,207.219 239.955,204.986 239.839 C 204.564 239.817,202.413 239.681,200.206 239.537 C 195.044 239.200,195.346 239.484,200.767 240.065 C 205.710 240.594,212.833 240.059,216.299 238.898 C 217.683 238.434,218.079 238.186,217.450 238.177 C 216.922 238.170,216.035 238.402,215.479 238.692 M322.433 239.689 C 322.065 240.538,321.768 241.447,321.773 241.709 C 321.777 241.971,322.127 241.423,322.550 240.491 C 322.973 239.559,323.270 238.650,323.210 238.471 C 323.151 238.292,322.801 238.840,322.433 239.689 M320.997 242.863 C 320.997 243.130,320.652 243.992,320.230 244.779 C 319.543 246.061,319.179 247.392,319.642 246.929 C 320.162 246.408,321.698 242.378,321.376 242.378 C 321.168 242.378,320.997 242.596,320.997 242.863 M88.986 242.862 C 88.980 243.023,89.125 243.455,89.310 243.821 C 89.494 244.187,90.702 246.644,91.993 249.281 C 94.377 254.148,96.248 257.456,96.223 256.759 C 96.216 256.548,95.711 255.513,95.102 254.458 C 93.480 251.653,91.275 247.192,91.275 246.718 C 91.275 246.492,91.016 246.092,90.700 245.829 C 90.384 245.567,90.125 245.061,90.125 244.705 C 90.125 244.078,89.011 242.275,88.986 242.862 M317.906 249.734 C 316.811 251.859,316.053 253.299,313.741 257.646 C 313.441 258.210,312.967 258.900,312.686 259.181 C 312.406 259.461,312.176 259.874,312.176 260.098 C 312.176 260.578,313.240 259.233,314.362 257.335 C 315.973 254.609,319.480 247.636,319.320 247.476 C 319.229 247.385,318.593 248.402,317.906 249.734 M187.344 252.555 C 187.977 252.844,189.012 253.078,189.645 253.073 C 190.568 253.066,190.416 252.959,188.878 252.532 C 186.468 251.863,185.853 251.872,187.344 252.555 M191.755 253.691 C 192.282 253.993,193.231 254.234,193.864 254.227 C 194.883 254.217,194.818 254.153,193.289 253.671 C 191.101 252.982,190.527 252.990,191.755 253.691 M219.244 253.367 C 219.105 253.506,218.343 253.745,217.550 253.899 L 216.107 254.178 217.450 254.209 C 218.188 254.226,219.223 253.993,219.751 253.691 C 220.382 253.331,220.502 253.139,220.102 253.130 C 219.768 253.122,219.382 253.229,219.244 253.367 M197.891 254.824 C 201.336 255.578,211.625 255.574,214.190 254.818 L 216.107 254.252 214.190 254.539 C 211.716 254.910,201.552 254.923,198.082 254.560 L 195.398 254.279 197.891 254.824 M96.733 258.198 C 97.042 258.672,97.536 259.483,97.832 259.999 C 106.706 275.472,125.290 293.493,142.090 302.915 C 148.532 306.528,159.403 311.674,159.784 311.293 C 159.946 311.131,158.506 310.442,153.595 308.331 C 150.091 306.824,144.871 304.130,141.269 301.969 C 140.025 301.222,136.523 299.082,135.203 298.262 C 134.790 298.005,134.250 297.622,134.004 297.411 C 133.757 297.200,133.170 296.769,132.699 296.453 C 124.217 290.750,112.062 279.003,104.986 269.669 C 102.718 266.678,100.863 264.139,100.863 264.027 C 100.863 263.832,99.344 261.568,98.945 261.170 C 98.840 261.064,98.326 260.158,97.803 259.156 C 97.280 258.154,96.699 257.335,96.512 257.335 C 96.325 257.335,96.425 257.723,96.733 258.198 M310.843 262.035 C 309.823 263.710,309.705 264.005,310.171 263.717 C 310.706 263.386,312.220 260.786,311.876 260.789 C 311.725 260.790,311.260 261.351,310.843 262.035 M307.969 266.376 C 307.081 267.553,306.432 268.593,306.527 268.688 C 306.703 268.863,308.015 267.213,309.227 265.292 C 310.328 263.548,309.688 264.100,307.969 266.376 M305.839 269.517 C 305.623 269.672,304.506 271.007,303.357 272.483 C 298.814 278.319,290.525 286.601,284.180 291.643 C 282.598 292.901,281.246 294.066,281.176 294.232 C 281.106 294.399,280.865 294.535,280.640 294.535 C 280.416 294.535,279.524 295.106,278.659 295.804 C 276.960 297.173,273.522 299.521,273.215 299.521 C 273.111 299.521,272.818 299.693,272.563 299.904 C 272.308 300.115,271.668 300.640,271.141 301.070 C 269.382 302.504,274.347 299.397,278.428 296.510 C 287.995 289.742,296.724 281.392,305.050 271.045 C 306.475 269.275,306.650 268.935,305.839 269.517 M267.881 302.781 C 267.037 303.291,265.355 304.182,264.142 304.762 C 262.929 305.342,261.937 305.962,261.937 306.140 C 261.937 306.454,267.749 303.511,269.365 302.380 C 270.657 301.474,269.548 301.775,267.881 302.781 M258.245 307.698 C 256.953 308.368,255.346 309.151,254.675 309.438 C 254.004 309.725,253.534 310.038,253.630 310.134 C 253.727 310.230,255.592 309.450,257.775 308.400 C 259.959 307.351,261.486 306.489,261.170 306.486 C 260.853 306.483,259.537 307.028,258.245 307.698 M251.029 310.846 C 250.062 311.578,250.800 311.572,252.209 310.836 C 253.088 310.378,253.154 310.266,252.541 310.273 C 252.119 310.279,251.439 310.537,251.029 310.846 M161.405 312.000 C 163.031 312.706,163.395 312.696,162.439 311.972 C 162.029 311.663,161.339 311.416,160.905 311.424 C 160.322 311.435,160.454 311.586,161.405 312.000 M247.961 311.997 C 246.994 312.728,247.732 312.722,249.141 311.987 C 250.020 311.529,250.086 311.416,249.473 311.424 C 249.051 311.429,248.371 311.687,247.961 311.997 M164.717 313.146 C 166.632 313.836,166.828 313.832,165.890 313.123 C 165.481 312.813,164.704 312.567,164.164 312.577 C 163.352 312.591,163.446 312.688,164.717 313.146 M244.848 313.123 C 243.891 313.846,244.255 313.856,245.881 313.150 C 246.833 312.737,246.964 312.586,246.382 312.575 C 245.948 312.567,245.257 312.813,244.848 313.123 M168.169 314.298 C 170.065 314.982,173.508 315.910,176.798 316.622 C 179.759 317.264,179.583 317.251,179.301 316.796 C 179.177 316.595,178.041 316.313,176.777 316.170 C 175.514 316.027,174.393 315.771,174.287 315.600 C 174.182 315.429,173.280 315.170,172.283 315.025 C 171.286 314.880,170.004 314.525,169.434 314.236 C 168.865 313.947,168.002 313.718,167.517 313.727 C 166.877 313.739,167.056 313.896,168.169 314.298 M241.323 314.106 C 240.849 314.297,240.460 314.563,240.460 314.698 C 240.460 314.833,240.762 314.817,241.131 314.663 C 241.500 314.509,242.320 314.249,242.953 314.086 C 243.996 313.817,244.014 313.788,243.145 313.774 C 242.617 313.766,241.798 313.915,241.323 314.106 M237.009 315.314 C 235.853 315.801,232.231 316.620,227.804 317.396 C 226.012 317.710,223.768 318.122,222.819 318.312 L 221.093 318.657 223.202 318.496 C 227.663 318.156,242.052 314.915,239.118 314.911 C 238.485 314.910,237.536 315.091,237.009 315.314 M180.345 317.426 C 180.714 317.523,181.318 317.523,181.687 317.426 C 182.057 317.330,181.755 317.251,181.016 317.251 C 180.278 317.251,179.976 317.330,180.345 317.426 M184.468 318.106 C 185.628 318.413,187.181 318.649,187.919 318.632 C 189.494 318.595,187.366 318.099,184.084 317.739 C 182.373 317.551,182.376 317.554,184.468 318.106 M193.480 319.263 C 195.590 319.561,198.782 319.783,200.575 319.758 L 203.835 319.712 200.384 319.448 C 198.485 319.303,195.292 319.080,193.289 318.953 L 189.645 318.722 193.480 319.263 M215.438 318.918 C 215.316 319.040,213.346 319.274,211.060 319.438 C 206.947 319.732,206.935 319.736,209.971 319.770 C 211.659 319.789,214.765 319.575,216.874 319.294 L 220.709 318.785 218.185 318.740 C 216.796 318.716,215.560 318.796,215.438 318.918 " stroke="none" fill="#8cbc74" fill-rule="evenodd"></path></g></svg>